<svg fill="#FFFFFF" xmlns="http://www.w3.org/2000/svg"  viewBox="0 0 50 50" width="24px" height="24px"><path d="M 25 4.7265625 C 24.309 4.7265625 23.619 4.9047187 23 5.2617188 L 8.90625 13.398438 C 7.66825 14.112438 6.90625 15.434281 6.90625 16.863281 L 6.90625 33.136719 C 6.90625 34.565719 7.66825 35.885609 8.90625 36.599609 L 23 44.738281 C 23.619 45.095281 24.309 45.273438 25 45.273438 C 25.691 45.273438 26.381 45.095281 27 44.738281 L 41.09375 36.601562 C 42.33175 35.887563 43.09375 34.565719 43.09375 33.136719 L 43.09375 16.863281 C 43.09375 15.434281 42.33175 14.112438 41.09375 13.398438 L 27 5.2617188 C 26.381 4.9047188 25.691 4.7265625 25 4.7265625 z M 25 6.7265625 C 25.351 6.7265625 25.696 6.8191406 26 6.9941406 L 40.09375 15.130859 C 40.71075 15.486859 41.09375 16.151281 41.09375 16.863281 L 41.09375 33.136719 C 41.09375 33.848719 40.71075 34.511187 40.09375 34.867188 L 26 43.005859 C 25.696 43.180859 25.351 43.273438 25 43.273438 C 24.649 43.273438 24.304 43.180859 24 43.005859 L 9.90625 34.869141 C 9.28925 34.513141 8.90625 33.848719 8.90625 33.136719 L 8.90625 16.863281 C 8.90625 16.151281 9.28925 15.486859 9.90625 15.130859 L 24 6.9941406 C 24.304 6.8191406 24.649 6.7265625 25 6.7265625 z M 24.625 11.339844 C 24.092521 11.339844 23.560728 11.481615 23.087891 11.763672 L 14.212891 17.064453 C 13.308125 17.605215 12.751953 18.586246 12.751953 19.640625 L 12.751953 30.359375 C 12.751953 31.413754 13.308125 32.394785 14.212891 32.935547 L 23.087891 38.236328 C 24.033566 38.800441 25.218388 38.800441 26.164062 38.236328 L 35.039062 32.935547 C 35.943829 32.394785 36.5 31.413754 36.5 30.359375 L 36.5 19.640625 C 36.5 18.586246 35.943829 17.605215 35.039062 17.064453 L 26.164062 11.763672 C 25.691225 11.481615 25.157479 11.339844 24.625 11.339844 z M 24.625 13.337891 C 24.802255 13.337891 24.979509 13.385525 25.138672 13.480469 L 34.013672 18.78125 C 34.316906 18.962488 34.5 19.287004 34.5 19.640625 L 34.5 30.359375 C 34.5 30.712996 34.316906 31.037512 34.013672 31.21875 L 25.138672 36.519531 C 24.820952 36.709057 24.431271 36.708336 24.113281 36.519531 L 24.111328 36.519531 L 15.238281 31.21875 C 14.935047 31.037512 14.751953 30.712996 14.751953 30.359375 L 14.751953 19.640625 C 14.751953 19.287004 14.935047 18.962488 15.238281 18.78125 L 24.111328 13.480469 C 24.270491 13.385525 24.447745 13.337891 24.625 13.337891 z M 20.75 19 L 20.75 31 L 31 25 L 20.75 19 z"/></svg>